<svg width="16" height="16" viewBox="0 0 16 16"  xmlns="http://www.w3.org/2000/svg">
<path fill-rule="evenodd" clip-rule="evenodd" d="M7.58622 3.92415C6.44666 2.73657 4.52765 2.7196 3.28271 3.93592C3.27876 3.93977 3.27476 3.94356 3.27069 3.94728C2.06286 5.05359 2.04501 6.90514 3.28271 8.11437L3.28596 8.11755L7.95891 12.7646L12.7186 8.11437C12.7225 8.11052 12.7265 8.10673 12.7306 8.103C13.9384 6.9967 13.9563 5.14515 12.7186 3.93592C11.4803 2.72612 9.55185 2.72612 8.31359 3.93592C8.21578 4.03148 8.084 4.08397 7.94746 4.08176C7.81092 4.07955 7.6809 4.02282 7.58622 3.92415ZM7.965 2.87875C6.3971 1.60258 4.0826 1.72401 2.57291 3.19341C0.912667 4.72033 0.931889 7.25189 2.56533 8.84948C2.56589 8.85003 2.56644 8.85057 2.567 8.85111L7.59464 13.8509C7.7933 14.0485 8.11319 14.0499 8.31359 13.8541L13.4286 8.8567C15.0892 7.32925 15.0693 4.79661 13.4343 3.19917C11.9156 1.71537 9.59864 1.60856 7.965 2.87875Z"/>
</svg>
